1.9Hzlow3min_grf.mot
version=1
nRows=25
nColumns 19
inDegrees=yes
endheader
time	1_ground_force_vx	1_ground_force_vy	1_ground_force_vz	1_ground_force_px	1_ground_force_py	1_ground_force_pz	1_ground_torque_x	1_ground_torque_y	1_ground_torque_z	2_ground_force_vx	2_ground_force_vy	2_ground_force_vz	2_ground_force_px	2_ground_force_py	2_ground_force_pz	2_ground_torque_x	2_ground_torque_y	2_ground_torque_z
            2.502500	          -25.896711	          976.451374	          -69.854189	           -0.233895	            0.006310	           -0.425653	           -0.248688	            9.376944	           -0.670816	           19.076946	          850.565624	           81.396140	           -0.251956	            0.005554	           -0.692058	           -0.195140	           -8.700506	           -0.832608
            2.503000	          -26.219080	          979.517432	          -70.207100	           -0.233935	            0.006308	           -0.425294	           -0.254072	            9.491857	           -0.680331	           15.430623	          848.521465	           82.892166	           -0.251199	            0.005557	           -0.692138	           -0.155612	           -8.557028	           -0.835937
            2.503500	          -26.817968	          979.342132	          -71.398655	           -0.234028	            0.006311	           -0.425785	           -0.259526	            9.477395	           -0.690947	           11.833102	          845.925327	           84.292345	           -0.250292	            0.005561	           -0.692377	           -0.120838	           -8.638499	           -0.860784
            2.504000	          -27.278080	          982.949127	          -71.794757	           -0.234102	            0.006309	           -0.425390	           -0.262580	            9.461927	           -0.691101	            8.510118	          845.170941	           85.886686	           -0.249412	            0.005565	           -0.692660	           -0.087576	           -8.697499	           -0.883844
            2.504500	          -27.693109	          985.115774	          -72.609857	           -0.234202	            0.006309	           -0.425450	           -0.261338	            9.296459	           -0.685213	            4.961859	          841.840418	           86.721080	           -0.248577	            0.005568	           -0.692552	           -0.050880	           -8.632339	           -0.889249
            2.505000	          -28.016666	          986.561966	          -73.565862	           -0.234296	            0.006309	           -0.425431	           -0.259281	            9.130166	           -0.680817	            1.217040	          841.086138	           87.893256	           -0.247678	            0.005572	           -0.692783	           -0.011983	           -8.281520	           -0.865416
            2.505500	          -28.523396	          988.188026	          -74.428905	           -0.234338	            0.006309	           -0.425475	           -0.260335	            9.019255	           -0.679317	           -2.290104	          839.411103	           89.296680	           -0.246886	            0.005576	           -0.693135	            0.021992	           -8.060960	           -0.857526
            2.506000	          -28.755285	          990.355102	          -75.336179	           -0.234379	            0.006309	           -0.425484	           -0.261123	            8.993271	           -0.684117	           -5.701033	          837.001015	           90.368931	           -0.246288	            0.005578	           -0.693054	            0.053377	           -7.836611	           -0.846100
            2.506500	          -29.032982	          992.341872	          -76.244112	           -0.234467	            0.006309	           -0.425453	           -0.266602	            9.112414	           -0.700130	           -8.887559	          837.352939	           91.732523	           -0.245364	            0.005583	           -0.693507	            0.083400	           -7.857660	           -0.860811
            2.507000	          -29.494670	          995.230753	          -77.331149	           -0.234620	            0.006309	           -0.425351	           -0.272343	            9.189602	           -0.714048	          -11.967777	          834.206514	           93.036655	           -0.244662	            0.005585	           -0.693395	            0.113835	           -7.934801	           -0.884946
            2.507500	          -30.322855	          996.136868	          -78.471645	           -0.234647	            0.006309	           -0.425510	           -0.272322	            8.946051	           -0.704734	          -15.101616	          832.902452	           94.065809	           -0.244033	            0.005587	           -0.693435	            0.143998	           -7.941949	           -0.896943
            2.508000	          -30.416335	          998.482694	          -79.011640	           -0.234689	            0.006309	           -0.425488	           -0.270218	            8.870497	           -0.701938	          -17.721373	          831.968152	           95.236834	           -0.243202	            0.005592	           -0.693748	            0.167940	           -7.884289	           -0.902528
            2.508500	          -31.381887	         1001.010295	          -79.961399	           -0.234805	            0.006309	           -0.425377	           -0.267312	            8.526628	           -0.681113	          -20.574297	          830.666612	           95.843523	           -0.242617	            0.005593	           -0.693683	            0.191661	           -7.738128	           -0.892837
            2.509000	          -31.752064	         1001.736988	          -81.287215	           -0.234893	            0.006310	           -0.425724	           -0.267358	            8.434792	           -0.684452	          -23.472783	          828.996955	           96.355047	           -0.241879	            0.005596	           -0.693720	            0.209827	           -7.410533	           -0.861333
            2.509500	          -31.984815	         1004.266033	          -82.513938	           -0.235015	            0.006309	           -0.425481	           -0.270685	            8.499036	           -0.698310	          -26.425910	          829.535312	           97.296835	           -0.241308	            0.005599	           -0.694034	            0.233161	           -7.319138	           -0.858467
            2.510000	          -32.583562	         1006.433234	          -83.466154	           -0.235119	            0.006309	           -0.425441	           -0.277045	            8.557285	           -0.709678	          -29.372265	          828.231257	           98.513621	           -0.240730	            0.005602	           -0.694083	            0.256163	           -7.223208	           -0.859162
            2.510500	          -32.861923	         1008.961755	          -84.601044	           -0.235210	            0.006309	           -0.425512	           -0.279244	            8.573647	           -0.718897	          -31.849645	          826.746321	           99.307207	           -0.240120	            0.005604	           -0.694052	            0.284355	           -7.381218	           -0.886618
            2.511000	          -33.459773	         1010.586814	          -85.234598	           -0.235336	            0.006309	           -0.425580	           -0.278692	            8.417358	           -0.709934	          -34.236479	          826.181027	          100.479446	           -0.239510	            0.005607	           -0.694202	            0.308566	           -7.446187	           -0.905599
            2.511500	          -33.966504	         1012.212873	          -86.097656	           -0.235444	            0.006310	           -0.425673	           -0.274266	            8.173213	           -0.695204	          -36.387385	          825.066727	          100.945702	           -0.238861	            0.005609	           -0.694132	            0.325302	           -7.376071	           -0.902451
            2.512000	          -34.611748	         1015.462385	          -87.228544	           -0.235553	            0.006309	           -0.425542	           -0.270378	            7.932517	           -0.681406	          -38.685477	          825.793328	          101.418587	           -0.238286	            0.005612	           -0.694378	            0.336415	           -7.181230	           -0.881952
            2.512500	          -34.752680	         1018.531821	          -88.361456	           -0.235528	            0.006309	           -0.425371	           -0.270066	            7.915100	           -0.686665	          -40.976286	          824.494487	          101.837325	           -0.237784	            0.005613	           -0.694304	            0.349802	           -7.038449	           -0.869353
            2.513000	          -35.031317	         1020.700461	          -89.635464	           -0.235764	            0.006308	           -0.425342	           -0.272835	            7.949540	           -0.698110	          -43.412152	          824.483012	          102.589211	           -0.237272	            0.005615	           -0.694447	            0.363003	           -6.894154	           -0.857829
            2.513500	          -35.355384	         1023.048602	          -90.725161	           -0.235994	            0.006309	           -0.425461	           -0.278651	            8.063085	           -0.715044	          -45.894931	          824.471871	          103.200324	           -0.236780	            0.005618	           -0.694579	            0.385940	           -6.933154	           -0.867833
            2.514000	          -35.862734	         1025.576807	          -91.767777	           -0.236029	            0.006308	           -0.425379	           -0.278616	            7.967664	           -0.712940	          -47.954044	          823.909602	          103.856223	           -0.236275	            0.005620	           -0.694615	            0.411642	           -7.072514	           -0.891511
            2.514500	          -36.370051	         1027.924715	          -92.811167	           -0.236024	            0.006309	           -0.425467	           -0.273275	            7.723560	           -0.697359	          -49.358482	          823.717267	          104.747806	           -0.235720	            0.005621	           -0.694537	            0.431913	           -7.207971	           -0.916600
